<svg id="Capa_1" enable-background="new 0 0 512 512" height="512" viewBox="0 0 512 512" width="512" xmlns="http://www.w3.org/2000/svg"><g><g><path d="m491.129 358.548c-.093-5.465-4.551-9.831-9.996-9.831-.057 0-.114 0-.172.001-5.521.094-9.923 4.646-9.83 10.168.09 5.323.134 10.257.134 15.084v54.601c0 9.335-7.599 16.93-16.939 16.93h-133.59c1.724-4.068 2.613-8.518 2.613-12.934 0-4.888-1.064-9.533-2.972-13.714 15.456-2.903 26.99-16.869 26.99-32.574 0-15.703-11.537-29.655-26.978-32.573 1.95-4.282 2.959-9.012 2.959-13.716 0-18.276-14.868-33.145-33.145-33.145l-130.467-.006 17.218-17.218c13.822-13.822 13.819-36.904 0-50.723-8.073-8.073-19.768-11.947-31.053-10.117.836-6.735 1.712-13.398 2.614-19.989l90.407-39.15h132.839l86.999 39.064c2.797 20.435 5.311 41.636 7.34 63.19.518 5.498 5.392 9.534 10.894 9.019 5.498-.518 9.536-5.395 9.019-10.894-9.221-97.939-28.305-188.646-38.859-233.994-4.926-21.213-23.588-36.027-45.379-36.027h-196.26c-21.784 0-40.449 14.813-45.39 36.023-9.129 39.236-25.807 117.589-35.799 204.787l-63.074 63.074h-30.517c-5.522 0-10 4.478-10 10v160.265c0 5.522 4.478 10 10 10h25.788l34.661 18.099c12.218 6.38 25.962 9.752 39.746 9.752h133.476c18.276 0 33.145-14.868 33.145-33.145 0-4.749-1.007-9.267-2.813-13.355h159.587c20.368 0 36.939-16.566 36.939-36.93v-54.6c.001-4.941-.044-9.985-.135-15.422zm-311.525-317.989c2.82-12.105 13.474-20.559 25.911-20.559h196.261c12.438 0 23.088 8.452 25.9 20.557 7.212 30.989 18.448 83.378 27.711 144.711l-77.386-34.748c-1.288-.578-2.684-.877-4.096-.877h-137.052c-1.367 0-2.72.28-3.974.823l-81.016 35.083c9.383-62.16 20.781-115.073 27.741-144.99zm84.802 451.441h-133.475c-10.573 0-21.116-2.587-30.488-7.48l-36.836-19.234c-1.429-.746-3.017-1.136-4.629-1.136h-18.243v-140.265h24.659c2.652 0 5.195-1.054 7.071-2.929l67.912-67.912c6.107-6.107 16.331-6.105 22.435 0 6.106 6.106 6.105 16.33 0 22.435l-17.221 17.221c-5.619 5.62-7.378 14.222-4.417 21.595 3.02 7.521 10.457 12.554 18.561 12.554h130.47c7.245 0 13.14 5.895 13.14 13.141 0 7.25-6.049 13.077-13.217 13.144h-104.844c-5.522 0-10 4.478-10 10s4.478 10 10 10h128.939c7.141 0 13.142 6.005 13.142 13.146 0 7.148-5.994 13.14-13.141 13.14l-128.94.003c-5.522 0-10 4.478-10 10s4.478 10 10 10h104.921c7.161 0 13.14 5.995 13.14 13.147 0 7.142-5.994 13.141-13.14 13.141h-104.921c-5.522 0-10 4.478-10 10s4.478 10 10 10h79.122c7.248 0 13.145 5.896 13.145 13.145s-5.897 13.144-13.145 13.144z"/><path d="m264.084 121.875h82.59c20.529 0 37.231-16.702 37.231-37.231v-.86c0-20.529-16.702-37.231-37.231-37.231h-82.59c-20.529 0-37.231 16.702-37.231 37.231v.86c0 20.529 16.702 37.231 37.231 37.231zm-17.231-38.092c0-9.501 7.73-17.231 17.231-17.231h82.59c9.501 0 17.231 7.73 17.231 17.231v.86c0 9.501-7.73 17.231-17.231 17.231h-82.59c-9.501 0-17.231-7.73-17.231-17.231z"/><path d="m483.25 305.27c-5.047-2.067-10.966.362-13.061 5.41-2.087 5.029.377 10.982 5.41 13.061 5.037 2.08 10.964-.379 13.05-5.41 2.089-5.038-.369-10.964-5.399-13.061z"/></g></g></svg>